<mxfile host="app.diagrams.net" modified="2023-07-18T00:48:02.394Z" agent="Mozilla/5.0 (Windows NT 10.0; Win64; x64) AppleWebKit/537.36 (KHTML, like Gecko) Chrome/114.0.0.0 Safari/537.36" etag="Jmt8rvLvGQzg4-7bl4xL" version="21.6.1" type="github">
  <diagram name="Page-1" id="W7ALAAF88mYsZOHTZs7_">
    <mxGraphModel dx="765" dy="454" grid="1" gridSize="10" guides="1" tooltips="1" connect="1" arrows="1" fold="1" page="1" pageScale="1" pageWidth="827" pageHeight="1169" math="0" shadow="0">
      <root>
        <mxCell id="0" />
        <mxCell id="1" parent="0" />
        <mxCell id="nkrwEltHXGKTcmSfRMnR-2" value="&lt;h1&gt;Nota&lt;/h1&gt;&lt;div&gt;-PushNotification&lt;/div&gt;&lt;div&gt;-MySQL&lt;/div&gt;&lt;div&gt;-Next&lt;/div&gt;&lt;div&gt;-API Rest&lt;/div&gt;&lt;div&gt;-Tailwind CSS&lt;/div&gt;&lt;div&gt;&lt;br&gt;&lt;/div&gt;" style="text;html=1;strokeColor=none;fillColor=none;spacing=5;spacingTop=-20;whiteSpace=wrap;overflow=hidden;rounded=0;" vertex="1" parent="1">
          <mxGeometry x="30" y="40" width="190" height="120" as="geometry" />
        </mxCell>
        <mxCell id="nkrwEltHXGKTcmSfRMnR-3" value="" style="shape=cylinder3;whiteSpace=wrap;html=1;boundedLbl=1;backgroundOutline=1;size=15;" vertex="1" parent="1">
          <mxGeometry x="710" y="430" width="60" height="80" as="geometry" />
        </mxCell>
        <mxCell id="nkrwEltHXGKTcmSfRMnR-4" value="MySQL" style="text;html=1;strokeColor=none;fillColor=none;align=center;verticalAlign=middle;whiteSpace=wrap;rounded=0;" vertex="1" parent="1">
          <mxGeometry x="710" y="470" width="60" height="30" as="geometry" />
        </mxCell>
        <mxCell id="nkrwEltHXGKTcmSfRMnR-9" style="edgeStyle=orthogonalEdgeStyle;rounded=0;orthogonalLoop=1;jettySize=auto;html=1;exitX=0.984;exitY=0.379;exitDx=0;exitDy=0;exitPerimeter=0;" edge="1" parent="1" source="nkrwEltHXGKTcmSfRMnR-15">
          <mxGeometry relative="1" as="geometry">
            <mxPoint x="280" y="420.47368421052636" as="targetPoint" />
            <mxPoint x="130" y="310" as="sourcePoint" />
          </mxGeometry>
        </mxCell>
        <mxCell id="nkrwEltHXGKTcmSfRMnR-6" value="Server&amp;nbsp; 124.70.0" style="swimlane;whiteSpace=wrap;html=1;startSize=30;" vertex="1" parent="1">
          <mxGeometry x="280" y="290" width="254" height="240" as="geometry" />
        </mxCell>
        <mxCell id="nkrwEltHXGKTcmSfRMnR-7" value="" style="whiteSpace=wrap;html=1;aspect=fixed;" vertex="1" parent="nkrwEltHXGKTcmSfRMnR-6">
          <mxGeometry x="94" y="140" width="80" height="80" as="geometry" />
        </mxCell>
        <mxCell id="nkrwEltHXGKTcmSfRMnR-8" value="API Rest" style="text;html=1;strokeColor=none;fillColor=none;align=center;verticalAlign=middle;whiteSpace=wrap;rounded=0;" vertex="1" parent="nkrwEltHXGKTcmSfRMnR-6">
          <mxGeometry x="104" y="165" width="60" height="30" as="geometry" />
        </mxCell>
        <mxCell id="nkrwEltHXGKTcmSfRMnR-11" value="3006" style="text;html=1;strokeColor=none;fillColor=none;align=center;verticalAlign=middle;whiteSpace=wrap;rounded=0;" vertex="1" parent="nkrwEltHXGKTcmSfRMnR-6">
          <mxGeometry x="104" y="110" width="60" height="30" as="geometry" />
        </mxCell>
        <mxCell id="nkrwEltHXGKTcmSfRMnR-10" value="&lt;font style=&quot;font-size: 14px;&quot;&gt;https&lt;/font&gt;" style="text;html=1;strokeColor=none;fillColor=none;align=center;verticalAlign=middle;whiteSpace=wrap;rounded=0;" vertex="1" parent="1">
          <mxGeometry x="160" y="390" width="60" height="30" as="geometry" />
        </mxCell>
        <mxCell id="nkrwEltHXGKTcmSfRMnR-13" value="" style="endArrow=classic;html=1;rounded=0;entryX=1.002;entryY=0.678;entryDx=0;entryDy=0;entryPerimeter=0;" edge="1" parent="1" target="nkrwEltHXGKTcmSfRMnR-7">
          <mxGeometry width="50" height="50" relative="1" as="geometry">
            <mxPoint x="710" y="485" as="sourcePoint" />
            <mxPoint x="460" y="485" as="targetPoint" />
          </mxGeometry>
        </mxCell>
        <mxCell id="nkrwEltHXGKTcmSfRMnR-14" value="" style="endArrow=classic;html=1;rounded=0;exitX=0;exitY=0.5;exitDx=0;exitDy=0;entryX=1.005;entryY=0.673;entryDx=0;entryDy=0;entryPerimeter=0;" edge="1" parent="1" source="nkrwEltHXGKTcmSfRMnR-7" target="nkrwEltHXGKTcmSfRMnR-15">
          <mxGeometry width="50" height="50" relative="1" as="geometry">
            <mxPoint x="200" y="520" as="sourcePoint" />
            <mxPoint x="250" y="470" as="targetPoint" />
          </mxGeometry>
        </mxCell>
        <mxCell id="nkrwEltHXGKTcmSfRMnR-12" value="" style="endArrow=classic;html=1;rounded=0;entryX=-0.033;entryY=0.276;entryDx=0;entryDy=0;entryPerimeter=0;exitX=1;exitY=0.25;exitDx=0;exitDy=0;" edge="1" parent="1" source="nkrwEltHXGKTcmSfRMnR-7" target="nkrwEltHXGKTcmSfRMnR-3">
          <mxGeometry width="50" height="50" relative="1" as="geometry">
            <mxPoint x="460" y="440" as="sourcePoint" />
            <mxPoint x="700" y="440" as="targetPoint" />
          </mxGeometry>
        </mxCell>
        <mxCell id="nkrwEltHXGKTcmSfRMnR-15" value="" style="whiteSpace=wrap;html=1;aspect=fixed;fillColor=#dae8fc;strokeColor=#6c8ebf;" vertex="1" parent="1">
          <mxGeometry x="50" y="390" width="80" height="80" as="geometry" />
        </mxCell>
        <mxCell id="nkrwEltHXGKTcmSfRMnR-5" value="Client" style="shape=umlActor;verticalLabelPosition=bottom;verticalAlign=top;html=1;outlineConnect=0;" vertex="1" parent="1">
          <mxGeometry x="100" y="410" width="20" height="40" as="geometry" />
        </mxCell>
        <mxCell id="nkrwEltHXGKTcmSfRMnR-16" value="" style="shape=image;verticalLabelPosition=bottom;labelBackgroundColor=default;verticalAlign=top;aspect=fixed;imageAspect=0;image=data:image/png,iVBORw0KGgoAAAANSUhEUgAAAOEAAADhCAMAAAAJbSJIAAAAb1BMVEX///8AAABUVFSvr6+pqanq6uqcnJzz8/N7e3v39/deXl4WFhagoKB4eHj7+/tNTU3Jyck8PDzV1dWlpaXo6OjMzMw2NjZERETZ2dlvb2/BwcEPDw8gICDh4eFmZma9vb0oKCiCgoKLi4uTk5O1tbX5357eAAAC50lEQVR4nO3ZaVOrMBiG4UDBFrWL3Su2Vuv//42WvGELodsMhnHu68shIYk8BZK0RykAAAAAAAAAAAAAAAAAAAAAAAAAAAAAAAAAAAAAAAAAf2g18X0FXXtdOyKepmEYlsV4EzZt5nJymLUNn60Rtlnt9Esf7xy9M9P3biJZomCdNCrHwVlZjAOXmTn7rku72gBJqiuHuvDm7H426CpUTRQEH0O7cnRPQvWqi0/VATa6alktOPx0Faomyv7U3qq8L6E66PLK6h98mpL/e3g2r1e6Em6e68JKH8kQ18c85cXvsTYajaZZ/Xgk5fGu8pl0KLJvSMaV8NIHPtRjrE1prkv23JPRz/NfT94mYfFIaa6E0aVRJNRBHyf6+Ohq9pSdabz1HcsT1hLcnVAN9Bh6trEe2Sq/Ccv35pGE6iufbcauF9vwnDAYF5UPJDRrQizjLdxt/CU0MYtV+5GEyYd+/azPqs5fwuFWIuY7tXvnUm1fPAxvbU38JYzzy9vIVO5KmL5UpY7F4N0ETJvbQMNnQrWUqzvqv3/DniZ0jPUkp+wdktXAV0IVf8gNyI7/Z0KVyCyR7m9KOG0ONTOnXlp3LZ4TFlvkuTPhbvFa1fxeMCzSuzZsmveE6lmucPbtSHh1Lq18hTi1NPGfMI/45kh4bT2UvcxK/pm52/QgodqVN6Jsc0vCn/zmrYP2GH1IqL4eSyjraZg3bln0e5Ewn/LvSzjRS40s9bLwj1zN+pGw2IuXNddnGnl/t1I4BW3te5LQvFKNezhJ6io9JFNxl/WPFa6Fvy8JzXNWlq/9EiVL/aEoy7d8x8Lfm4RqdVdCWeqPlf5tv9T0J6GeGsvSlYSy1C+r/R0/oWa8JFw0rk5bppWEy4sJZY3/rPc/WA+yOPlIuI0Gg8jxhS5+KY+Tc5uGyNz4eJGVrIB5F6t2nvXrzX8F/fVHDQAAAAAAAAAAAAAAAAAAAAAAAAAAAAAAAAAAAAAAAADA//YL9y0aChdNT4cAAAAASUVORK5CYII=;" vertex="1" parent="1">
          <mxGeometry x="50" y="390" width="30" height="30" as="geometry" />
        </mxCell>
      </root>
    </mxGraphModel>
  </diagram>
</mxfile>
